{
	"asset":{
		"generator":"Khronos glTF Blender I/O v4.0.44",
		"version":"2.0"
	},
	"extensionsUsed":[
		"KHR_materials_specular",
		"KHR_materials_ior"
	],
	"scene":0,
	"scenes":[
		{
			"name":"Scene",
			"nodes":[
				7,
				8
			]
		}
	],
	"nodes":[
		{
			"mesh":0,
			"name":"pCube2.001",
			"scale":[
				1.0499972105026245,
				1.0499972105026245,
				1.0499972105026245
			],
			"translation":[
				0.033739276230335236,
				-0.08936234563589096,
				-0.0430939756333828
			]
		},
		{
			"mesh":1,
			"name":"pCube4",
			"scale":[
				1.021965742111206,
				1.021965742111206,
				1.021965742111206
			],
			"translation":[
				0.033739276230335236,
				-0.08936234563589096,
				-0.0430939756333828
			]
		},
		{
			"mesh":2,
			"name":"pCube5",
			"translation":[
				0.033739276230335236,
				-0.08936234563589096,
				-0.0430939756333828
			]
		},
		{
			"mesh":3,
			"name":"pCube6",
			"translation":[
				0.033739276230335236,
				-0.08936234563589096,
				-0.0430939756333828
			]
		},
		{
			"name":"transform2",
			"rotation":[
				-0.7071068286895752,
				0,
				0,
				0.7071068286895752
			],
			"scale":[
				20.000001907348633,
				20.000001907348633,
				20.000001907348633
			]
		},
		{
			"children":[
				0,
				1,
				2,
				3,
				4
			],
			"name":"pCube2"
		},
		{
			"name":"transform1",
			"rotation":[
				-0.7071068286895752,
				0,
				0,
				0.7071068286895752
			],
			"scale":[
				20.000001907348633,
				20.000001907348633,
				20.000001907348633
			]
		},
		{
			"children":[
				5,
				6
			],
			"name":"pCube1",
			"rotation":[
				0.7071068286895752,
				0,
				0,
				0.7071068286895752
			],
			"scale":[
				0.04999999701976776,
				0.04999999701976776,
				0.04999999701976776
			]
		},
		{
			"mesh":4,
			"name":"pCube3",
			"rotation":[
				0.7071068286895752,
				0,
				0,
				0.7071068286895752
			],
			"scale":[
				0.013622422702610493,
				0.0003279120137449354,
				0.0005141149740666151
			],
			"translation":[
				0.0018495488911867142,
				0.004233594052493572,
				0.01342893484979868
			]
		}
	],
	"materials":[
		{
			"doubleSided":true,
			"extensions":{
				"KHR_materials_specular":{
					"specularColorFactor":[
						2.0,
						2.0,
						2.0
					]
				},
				"KHR_materials_ior":{
					"ior":1.4500000476837158
				}
			},
			"name":"blinn2",
			"pbrMetallicRoughness":{
				"metallicFactor":0.5,
				"roughnessFactor":0.7487671971321106
			}
		},
		{
			"doubleSided":true,
			"extensions":{
				"KHR_materials_specular":{
					"specularColorFactor":[
						2.0,
						2.0,
						2.0
					]
				},
				"KHR_materials_ior":{
					"ior":1.4500000476837158
				}
			},
			"name":"blinn1",
			"pbrMetallicRoughness":{
				"metallicFactor":0.5,
				"roughnessFactor":0.7487671971321106
			}
		},
		{
			"doubleSided":true,
			"extensions":{
				"KHR_materials_specular":{
					"specularColorFactor":[
						2.0,
						2.0,
						2.0
					]
				},
				"KHR_materials_ior":{
					"ior":1.4500000476837158
				}
			},
			"name":"standardSurface2",
			"pbrMetallicRoughness":{
				"baseColorFactor":[
					0.800000011920929,
					0.800000011920929,
					0.800000011920929,
					1
				],
				"roughnessFactor":0.5527864098548889
			}
		},
		{
			"doubleSided":true,
			"extensions":{
				"KHR_materials_specular":{
					"specularColorFactor":[
						2.0,
						2.0,
						2.0
					]
				},
				"KHR_materials_ior":{
					"ior":1.4500000476837158
				}
			},
			"name":"lambert1",
			"pbrMetallicRoughness":{
				"baseColorFactor":[
					0.5,
					0.5,
					0.5,
					1
				],
				"roughnessFactor":0.5527864098548889
			}
		}
	],
	"meshes":[
		{
			"name":"Mesh",
			"primitives":[
				{
					"attributes":{
						"POSITION":0,
						"NORMAL":1
					},
					"indices":2,
					"material":0
				}
			]
		},
		{
			"name":"Mesh.001",
			"primitives":[
				{
					"attributes":{
						"POSITION":3,
						"NORMAL":4
					},
					"indices":5,
					"material":1
				}
			]
		},
		{
			"name":"Mesh.002",
			"primitives":[
				{
					"attributes":{
						"POSITION":6,
						"NORMAL":7
					},
					"indices":8,
					"material":2
				}
			]
		},
		{
			"name":"Mesh.003",
			"primitives":[
				{
					"attributes":{
						"POSITION":9,
						"NORMAL":10
					},
					"indices":11,
					"material":2
				}
			]
		},
		{
			"name":"Mesh.004",
			"primitives":[
				{
					"attributes":{
						"POSITION":12,
						"NORMAL":13,
						"TEXCOORD_0":14
					},
					"indices":15,
					"material":3
				}
			]
		}
	],
	"accessors":[
		{
			"bufferView":0,
			"componentType":5126,
			"count":126,
			"max":[
				0.390872985124588,
				0.4226195216178894,
				0.18574118614196777
			],
			"min":[
				-0.4661559760570526,
				0.017183275893330574,
				-0.5247836112976074
			],
			"type":"VEC3"
		},
		{
			"bufferView":1,
			"componentType":5126,
			"count":126,
			"type":"VEC3"
		},
		{
			"bufferView":2,
			"componentType":5123,
			"count":648,
			"type":"SCALAR"
		},
		{
			"bufferView":3,
			"componentType":5126,
			"count":163,
			"max":[
				0.41084474325180054,
				0.11701610684394836,
				0.4609995186328888
			],
			"min":[
				-0.47687289118766785,
				-0.47873806953430176,
				-0.5407567620277405
			],
			"type":"VEC3"
		},
		{
			"bufferView":4,
			"componentType":5126,
			"count":163,
			"type":"VEC3"
		},
		{
			"bufferView":5,
			"componentType":5123,
			"count":828,
			"type":"SCALAR"
		},
		{
			"bufferView":6,
			"componentType":5126,
			"count":154169,
			"max":[
				0.8222739696502686,
				0.3868404030799866,
				3.3989510536193848
			],
			"min":[
				-0.8897525072097778,
				-0.47943195700645447,
				-0.537541389465332
			],
			"type":"VEC3"
		},
		{
			"bufferView":7,
			"componentType":5126,
			"count":154169,
			"type":"VEC3"
		},
		{
			"bufferView":8,
			"componentType":5125,
			"count":924618,
			"type":"SCALAR"
		},
		{
			"bufferView":9,
			"componentType":5126,
			"count":444,
			"max":[
				0.5304491519927979,
				0.15082629024982452,
				1.858230710029602
			],
			"min":[
				-0.5979276299476624,
				-0.43233177065849304,
				0.5832898616790771
			],
			"type":"VEC3"
		},
		{
			"bufferView":10,
			"componentType":5126,
			"count":444,
			"type":"VEC3"
		},
		{
			"bufferView":11,
			"componentType":5123,
			"count":2442,
			"type":"SCALAR"
		},
		{
			"bufferView":12,
			"componentType":5126,
			"count":497,
			"max":[
				1.513682246208191,
				0.3247642517089844,
				20.158679962158203
			],
			"min":[
				-1.7852269411087036,
				-90.58866882324219,
				-0.7605447769165039
			],
			"type":"VEC3"
		},
		{
			"bufferView":13,
			"componentType":5126,
			"count":497,
			"type":"VEC3"
		},
		{
			"bufferView":14,
			"componentType":5126,
			"count":497,
			"type":"VEC2"
		},
		{
			"bufferView":15,
			"componentType":5123,
			"count":1404,
			"type":"SCALAR"
		}
	],
	"bufferViews":[
		{
			"buffer":0,
			"byteLength":1512,
			"byteOffset":0,
			"target":34962
		},
		{
			"buffer":0,
			"byteLength":1512,
			"byteOffset":1512,
			"target":34962
		},
		{
			"buffer":0,
			"byteLength":1296,
			"byteOffset":3024,
			"target":34963
		},
		{
			"buffer":0,
			"byteLength":1956,
			"byteOffset":4320,
			"target":34962
		},
		{
			"buffer":0,
			"byteLength":1956,
			"byteOffset":6276,
			"target":34962
		},
		{
			"buffer":0,
			"byteLength":1656,
			"byteOffset":8232,
			"target":34963
		},
		{
			"buffer":0,
			"byteLength":1850028,
			"byteOffset":9888,
			"target":34962
		},
		{
			"buffer":0,
			"byteLength":1850028,
			"byteOffset":1859916,
			"target":34962
		},
		{
			"buffer":0,
			"byteLength":3698472,
			"byteOffset":3709944,
			"target":34963
		},
		{
			"buffer":0,
			"byteLength":5328,
			"byteOffset":7408416,
			"target":34962
		},
		{
			"buffer":0,
			"byteLength":5328,
			"byteOffset":7413744,
			"target":34962
		},
		{
			"buffer":0,
			"byteLength":4884,
			"byteOffset":7419072,
			"target":34963
		},
		{
			"buffer":0,
			"byteLength":5964,
			"byteOffset":7423956,
			"target":34962
		},
		{
			"buffer":0,
			"byteLength":5964,
			"byteOffset":7429920,
			"target":34962
		},
		{
			"buffer":0,
			"byteLength":3976,
			"byteOffset":7435884,
			"target":34962
		},
		{
			"buffer":0,
			"byteLength":2808,
			"byteOffset":7439860,
			"target":34963
		}
	],
	"buffers":[
		{
			"byteLength":7442668,
			"uri":"doll_03_teacher.bin"
		}
	]
}
