{
	"asset":{
		"generator":"Khronos glTF Blender I/O v4.0.44",
		"version":"2.0"
	},
	"scene":0,
	"scenes":[
		{
			"name":"Scene",
			"nodes":[
				4,
				8
			]
		}
	],
	"nodes":[
		{
			"mesh":0,
			"name":"pCube2.001",
			"scale":[
				10,
				10,
				10
			],
			"translation":[
				0.033739276230335236,
				-0.08936111629009247,
				-16.35051727294922
			]
		},
		{
			"name":"transform2",
			"rotation":[
				-0.7071068286895752,
				0,
				0,
				0.7071068286895752
			],
			"scale":[
				20.000001907348633,
				20.000001907348633,
				20.000001907348633
			]
		},
		{
			"children":[
				0,
				1
			],
			"name":"pCube2"
		},
		{
			"name":"transform1",
			"rotation":[
				-0.7071068286895752,
				0,
				0,
				0.7071068286895752
			],
			"scale":[
				20.000001907348633,
				20.000001907348633,
				20.000001907348633
			]
		},
		{
			"children":[
				2,
				3
			],
			"name":"pCube1",
			"rotation":[
				0.7071068286895752,
				0,
				0,
				0.7071068286895752
			],
			"scale":[
				0.04999999701976776,
				0.04999999701976776,
				0.04999999701976776
			]
		},
		{
			"name":"transform2.001",
			"rotation":[
				-0.7071068286895752,
				0,
				0,
				0.7071068286895752
			],
			"scale":[
				20.000001907348633,
				20.000001907348633,
				20.000001907348633
			]
		},
		{
			"children":[
				5
			],
			"name":"pCube2.002"
		},
		{
			"name":"transform1.001",
			"rotation":[
				-0.7071068286895752,
				0,
				0,
				0.7071068286895752
			],
			"scale":[
				20.000001907348633,
				20.000001907348633,
				20.000001907348633
			]
		},
		{
			"children":[
				6,
				7
			],
			"name":"pCube1.001",
			"rotation":[
				0.7071068286895752,
				0,
				0,
				0.7071068286895752
			],
			"scale":[
				0.04999999701976776,
				0.04999999701976776,
				0.04999999701976776
			]
		}
	],
	"materials":[
		{
			"doubleSided":true,
			"name":"standardSurface2",
			"pbrMetallicRoughness":{
				"metallicFactor":0,
				"roughnessFactor":0.5527864098548889
			}
		}
	],
	"meshes":[
		{
			"name":"Mesh",
			"primitives":[
				{
					"attributes":{
						"POSITION":0,
						"NORMAL":1
					},
					"indices":2,
					"material":0
				}
			]
		}
	],
	"accessors":[
		{
			"bufferView":0,
			"componentType":5126,
			"count":2141,
			"max":[
				0.8909889459609985,
				0.38674071431159973,
				3.400162696838379
			],
			"min":[
				-0.9674199819564819,
				-0.4788260757923126,
				-0.5346977114677429
			],
			"type":"VEC3"
		},
		{
			"bufferView":1,
			"componentType":5126,
			"count":2141,
			"type":"VEC3"
		},
		{
			"bufferView":2,
			"componentType":5123,
			"count":12834,
			"type":"SCALAR"
		}
	],
	"bufferViews":[
		{
			"buffer":0,
			"byteLength":25692,
			"byteOffset":0,
			"target":34962
		},
		{
			"buffer":0,
			"byteLength":25692,
			"byteOffset":25692,
			"target":34962
		},
		{
			"buffer":0,
			"byteLength":25668,
			"byteOffset":51384,
			"target":34963
		}
	],
	"buffers":[
		{
			"byteLength":77052,
			"uri":"doll_02_V2.0.bin"
		}
	]
}
